<svg aria-hidden="true" style="position: absolute; width: 0; height: 0; overflow: hidden;" version="1.1" xmlns="http://www.w3.org/2000/svg" xmlns:xlink="http://www.w3.org/1999/xlink">
<defs>
<symbol id="icon-burger" viewBox="0 0 32 32">
<path d="M0 0h32v4h-32v-4zM0 14h32v4h-32v-4zM32 28h-32v4h32v-4z"></path>
</symbol>
<symbol id="icon-checkmarkFail" viewBox="0 0 32 32">
<path fill="#e8184a" style="fill: var(--color2, #e8184a)" d="M16 4.923c-3.4 0-6.154 2.754-6.154 6.154s2.754 6.154 6.154 6.154c3.4 0 6.154-2.754 6.154-6.154s-2.754-6.154-6.154-6.154zM19.077 13.283l-0.871 0.871-2.206-2.206-2.206 2.206-0.871-0.871 2.206-2.206-2.206-2.206 0.871-0.871 2.206 2.206 2.206-2.206 0.871 0.871-2.206 2.206 2.206 2.206z"></path>
<path fill="#fff" style="fill: var(--color1, #fff)" d="M18.206 14.154l0.871-0.871-2.206-2.206 2.206-2.206-0.871-0.871-2.206 2.206-2.206-2.206-0.871 0.871 2.206 2.206-2.206 2.206 0.871 0.871 2.206-2.206 2.206 2.206z"></path>
</symbol>
<symbol id="icon-checkmarkGood" viewBox="0 0 32 32">
<path fill="#18e8a4" style="fill: var(--color3, #18e8a4)" d="M16 4.923c-3.397 0-6.154 2.757-6.154 6.154s2.757 6.154 6.154 6.154c3.397 0 6.154-2.757 6.154-6.154s-2.757-6.154-6.154-6.154zM14.769 14.154l-3.077-3.077 0.868-0.868 2.209 2.203 4.671-4.671 0.868 0.874-5.538 5.538z"></path>
<path fill="#fff" style="fill: var(--color1, #fff)" d="M11.692 11.077l3.077 3.077 5.538-5.538-0.868-0.874-4.671 4.671-2.209-2.203-0.868 0.868z"></path>
</symbol>
<symbol id="icon-Contact" viewBox="0 0 32 32">
<path fill="#fff" style="fill: var(--color1, #fff)" d="M26.667 20.666c-1.667 0-3.267-0.267-4.76-0.76-0.467-0.147-0.987-0.040-1.36 0.32l-2.933 2.933c-3.773-1.92-6.867-5-8.787-8.773l2.933-2.947c0.373-0.36 0.48-0.88 0.333-1.347-0.493-1.493-0.76-3.093-0.76-4.76 0-0.733-0.6-1.333-1.333-1.333h-4.667c-0.733 0-1.333 0.6-1.333 1.333 0 12.52 10.147 22.667 22.667 22.667 0.733 0 1.333-0.6 1.333-1.333v-4.667c0-0.733-0.6-1.333-1.333-1.333zM16 4v13.333l4-4h8v-9.333h-12z"></path>
</symbol>
<symbol id="icon-errorItem" viewBox="0 0 32 32">
<path fill="#efefef" style="fill: var(--color4, #efefef)" d="M28.296 24.554c0-6.148 3.185-10.371 3.185-13.333s-1.703-9.185-15.332-9.185c-13.629 0-15.63 8.371-15.63 11.629 0 15.259 27.778 21.778 27.778 10.889z"></path>
<path fill="#a4afc1" style="fill: var(--color5, #a4afc1)" d="M23.555 11.556c-0.735 0-1.333-0.598-1.333-1.333s0.598-1.333 1.333-1.333c0.735 0 1.333 0.598 1.333 1.333s-0.598 1.333-1.333 1.333zM23.555 9.778c-0.244 0-0.444 0.199-0.444 0.444s0.2 0.444 0.444 0.444c0.244 0 0.445-0.199 0.445-0.444s-0.2-0.444-0.445-0.444z"></path>
<path fill="#f3f3f1" style="fill: var(--color6, #f3f3f1)" d="M18.889 22.445h-12.889v-3.111c0-1.473 1.194-2.667 2.667-2.667h7.556c1.473 0 2.667 1.194 2.667 2.667v3.111z"></path>
<path fill="#f3f3f1" style="fill: var(--color6, #f3f3f1)" d="M12.444 13.556c1.841 0 3.333-1.492 3.333-3.333s-1.492-3.333-3.333-3.333c-1.841 0-3.333 1.492-3.333 3.333s1.492 3.333 3.333 3.333z"></path>
<path fill="#e8184a" style="fill: var(--color2, #e8184a)" d="M15.769 10.044c-1.511 0.231-2.436-1.378-2.436-1.378-1.564 1.458-3.547 1.422-4.213 1.36 0.098-1.751 1.547-3.138 3.324-3.138s3.236 1.396 3.324 3.156z"></path>
<path fill="#e8184a" style="fill: var(--color2, #e8184a)" d="M20.889 26c2.823 0 5.111-2.288 5.111-5.111s-2.288-5.111-5.111-5.111c-2.823 0-5.111 2.288-5.111 5.111s2.288 5.111 5.111 5.111z"></path>
<path fill="#000" style="fill: var(--color7, #000)" opacity="0.2" d="M17.778 20.889c0-2.48 1.767-4.547 4.111-5.012-0.323-0.064-0.658-0.1-1-0.1-2.823 0-5.111 2.288-5.111 5.111s2.288 5.111 5.111 5.111c0.342 0 0.677-0.035 1-0.099-2.344-0.465-4.111-2.532-4.111-5.011z"></path>
<path fill="#d5dbe1" style="fill: var(--color8, #d5dbe1)" d="M10.667 16.667h-2c-1.473 0-2.667 1.194-2.667 2.667v3.111h2v-3.111c0-1.473 1.194-2.667 2.667-2.667z"></path>
<path fill="#d5dbe1" style="fill: var(--color8, #d5dbe1)" d="M11.111 10.222c0-1.49 0.984-2.737 2.333-3.164-0.317-0.1-0.649-0.17-1-0.17-1.841 0-3.333 1.492-3.333 3.333s1.492 3.333 3.333 3.333c0.351 0 0.683-0.069 1-0.17-1.349-0.427-2.333-1.674-2.333-3.164z"></path>
<path fill="#ba133b" style="fill: var(--color9, #ba133b)" d="M13.443 7.057c-0.316-0.1-0.648-0.168-0.998-0.168-1.778 0-3.227 1.387-3.324 3.138 0.369 0.035 1.146 0.051 2.028-0.18 0.148-1.323 1.062-2.399 2.295-2.789z"></path>
<path fill="#000" style="fill: var(--color7, #000)" d="M15.465 10.734c-1.032 0-1.796-0.617-2.246-1.116-1.676 1.188-3.57 1.129-4.162 1.072l0.125-1.327c0.519 0.049 2.313 0.106 3.696-1.184 0.149-0.139 0.353-0.202 0.554-0.172s0.378 0.15 0.479 0.327c0.005 0.009 0.722 1.201 1.757 1.051l0.202 1.317c-0.14 0.021-0.275 0.031-0.405 0.031z"></path>
<path fill="#000" style="fill: var(--color7, #000)" d="M12.444 14.222c-2.205 0-4-1.795-4-4s1.795-4 4-4c2.205 0 4 1.795 4 4s-1.795 4-4 4zM12.444 7.556c-1.47 0-2.667 1.196-2.667 2.667s1.196 2.667 2.667 2.667c1.47 0 2.667-1.196 2.667-2.667s-1.196-2.667-2.667-2.667z"></path>
<path fill="#000" style="fill: var(--color7, #000)" d="M20.889 26.667c-3.186 0-5.778-2.592-5.778-5.778s2.592-5.778 5.778-5.778c3.186 0 5.778 2.592 5.778 5.778s-2.592 5.778-5.778 5.778zM20.889 16.444c-2.451 0-4.444 1.994-4.444 4.444s1.994 4.444 4.444 4.444c2.451 0 4.444-1.994 4.444-4.444s-1.994-4.444-4.444-4.444z"></path>
<path fill="#000" style="fill: var(--color7, #000)" d="M18.858 21.973l3.111-3.111 0.943 0.943-3.111 3.111-0.943-0.943z"></path>
<path fill="#000" style="fill: var(--color7, #000)" d="M18.858 19.805l0.943-0.943 3.111 3.111-0.943 0.943-3.111-3.111z"></path>
<path fill="#000" style="fill: var(--color7, #000)" d="M13.333 23.111h-7.333c-0.368 0-0.667-0.299-0.667-0.667v-3.111c0-1.838 1.496-3.333 3.333-3.333h5.573v1.333h-5.573c-1.102 0-2 0.897-2 2v2.445h6.667v1.333z"></path>
</symbol>
<symbol id="icon-Subtract" viewBox="0 0 32 32">
<path fill="#18e8a4" style="fill: var(--color3, #18e8a4)" d="M17.768 0.761c-1.005-1.015-2.634-1.015-3.638 0l-5.457 5.513c-1.005 1.015-1.005 2.661 0 3.676l5.457 5.513c1.005 1.015 2.634 1.015 3.638 0l2.308-2.331-1.663-1.658c-0.646 0.447-1.365 0.671-2.159 0.671-0.516 0-1.009-0.1-1.48-0.3s-0.877-0.471-1.218-0.812c-0.341-0.341-0.611-0.747-0.812-1.218s-0.3-0.964-0.3-1.48c0-0.516 0.1-1.009 0.3-1.48s0.471-0.877 0.812-1.218c0.341-0.341 0.747-0.611 1.218-0.812s0.964-0.3 1.48-0.3c0.516 0 1.009 0.1 1.48 0.3s0.877 0.471 1.218 0.812 0.611 0.747 0.812 1.218c0.2 0.471 0.3 0.964 0.3 1.48 0 0.794-0.224 1.513-0.671 2.159l1.656 1.656 2.178-2.2c1.005-1.015 1.005-2.661 0-3.675l-5.457-5.513zM18.678 8.335c0 0.667-0.238 1.239-0.714 1.715-0.473 0.473-1.043 0.709-1.71 0.709s-1.238-0.237-1.713-0.712c-0.474-0.474-0.712-1.045-0.712-1.713s0.237-1.238 0.712-1.713c0.474-0.474 1.045-0.712 1.713-0.712s1.238 0.237 1.713 0.712c0.474 0.474 0.712 1.045 0.712 1.713z"></path>
</symbol>
<symbol id="icon-successItem" viewBox="0 0 32 32">
<path fill="#efefef" style="fill: var(--color4, #efefef)" d="M7.446 3.704c6.148 0 10.371-3.185 13.333-3.185s9.185 1.703 9.185 15.332c0 13.629-8.371 15.629-11.629 15.629-15.259 0.001-21.778-27.777-10.889-27.777z"></path>
<path fill="#a4afc1" style="fill: var(--color5, #a4afc1)" d="M23.914 3.215l0.628-0.629 1.257 1.257-0.629 0.629-1.257-1.257z"></path>
<path fill="#a4afc1" style="fill: var(--color5, #a4afc1)" d="M27.527 6.829l0.628-0.629 1.257 1.257-0.629 0.629-1.257-1.257z"></path>
<path fill="#a4afc1" style="fill: var(--color5, #a4afc1)" d="M27.37 3.843l1.257-1.257 0.628 0.629-1.257 1.257-0.628-0.629z"></path>
<path fill="#f3f3f1" style="fill: var(--color6, #f3f3f1)" d="M18.889 22.444h-12.889v-3.111c0-1.473 1.194-2.667 2.667-2.667h7.556c1.473 0 2.667 1.194 2.667 2.667v3.111z"></path>
<path fill="#f3f3f1" style="fill: var(--color6, #f3f3f1)" d="M12.444 13.556c1.841 0 3.333-1.492 3.333-3.333s-1.492-3.333-3.333-3.333c-1.841 0-3.333 1.492-3.333 3.333s1.492 3.333 3.333 3.333z"></path>
<path fill="#2fdf84" style="fill: var(--color11, #2fdf84)" d="M15.769 10.044c-1.511 0.231-2.436-1.378-2.436-1.378-1.564 1.458-3.547 1.422-4.213 1.36 0.098-1.751 1.547-3.138 3.324-3.138s3.236 1.396 3.324 3.156z"></path>
<path fill="#2fdf84" style="fill: var(--color11, #2fdf84)" d="M20.889 26c2.823 0 5.111-2.288 5.111-5.111s-2.288-5.111-5.111-5.111-5.111 2.288-5.111 5.111c0 2.823 2.288 5.111 5.111 5.111z"></path>
<path fill="#00b871" style="fill: var(--color12, #00b871)" d="M17.778 20.889c0-2.48 1.767-4.547 4.111-5.012-0.323-0.064-0.658-0.1-1-0.1-2.823 0-5.111 2.288-5.111 5.111s2.288 5.111 5.111 5.111c0.342 0 0.677-0.035 1-0.099-2.344-0.465-4.111-2.532-4.111-5.011z"></path>
<path fill="#d5dbe1" style="fill: var(--color8, #d5dbe1)" d="M10.667 16.667h-2c-1.473 0-2.667 1.194-2.667 2.667v3.111h2v-3.111c0-1.473 1.194-2.667 2.667-2.667z"></path>
<path fill="#d5dbe1" style="fill: var(--color8, #d5dbe1)" d="M11.111 10.222c0-1.49 0.984-2.737 2.333-3.164-0.317-0.1-0.649-0.17-1-0.17-1.841 0-3.333 1.492-3.333 3.333s1.492 3.333 3.333 3.333c0.351 0 0.683-0.069 1-0.17-1.349-0.427-2.333-1.674-2.333-3.164z"></path>
<path fill="#00b871" style="fill: var(--color12, #00b871)" d="M13.443 7.057c-0.316-0.1-0.648-0.168-0.998-0.168-1.778 0-3.227 1.387-3.324 3.138 0.369 0.035 1.146 0.051 2.028-0.18 0.148-1.323 1.062-2.399 2.295-2.789z"></path>
<path fill="#000" style="fill: var(--color7, #000)" d="M15.465 10.734c-1.032 0-1.796-0.617-2.246-1.116-1.677 1.189-3.575 1.126-4.161 1.072l0.124-1.327c0.516 0.049 2.313 0.107 3.697-1.184 0.148-0.139 0.351-0.202 0.554-0.172 0.201 0.030 0.377 0.15 0.479 0.327 0.005 0.009 0.722 1.201 1.757 1.051l0.202 1.317c-0.14 0.021-0.276 0.031-0.406 0.031z"></path>
<path fill="#000" style="fill: var(--color7, #000)" d="M12.444 14.222c-2.205 0-4-1.795-4-4s1.795-4 4-4c2.205 0 4 1.795 4 4s-1.795 4-4 4zM12.444 7.556c-1.47 0-2.667 1.196-2.667 2.667s1.196 2.667 2.667 2.667c1.47 0 2.667-1.196 2.667-2.667s-1.196-2.667-2.667-2.667z"></path>
<path fill="#000" style="fill: var(--color7, #000)" d="M20.889 26.667c-3.186 0-5.778-2.592-5.778-5.778s2.592-5.778 5.778-5.778c3.186 0 5.778 2.592 5.778 5.778s-2.592 5.778-5.778 5.778zM20.889 16.444c-2.451 0-4.444 1.994-4.444 4.444s1.994 4.444 4.444 4.444c2.451 0 4.444-1.994 4.444-4.444s-1.994-4.444-4.444-4.444z"></path>
<path fill="#000" style="fill: var(--color7, #000)" d="M20 23.111c-0.177 0-0.347-0.070-0.471-0.195l-1.778-1.778 0.943-0.943 1.274 1.274 2.642-3.019 1.003 0.877-3.111 3.556c-0.122 0.139-0.295 0.221-0.48 0.227-0.007 0.001-0.015 0.001-0.022 0.001z"></path>
<path fill="#000" style="fill: var(--color7, #000)" d="M13.333 23.111h-7.333c-0.368 0-0.667-0.299-0.667-0.667v-3.111c0-1.838 1.495-3.333 3.333-3.333h5.573v1.333h-5.573c-1.103 0-2 0.897-2 2v2.445h6.667v1.333z"></path>
</symbol>
<symbol id="icon-close" viewBox="0 0 32 32">
<path d="M31.708 25.708c-0-0-0-0-0-0l-9.708-9.708 9.708-9.708c0-0 0-0 0-0 0.105-0.105 0.18-0.227 0.229-0.357 0.133-0.356 0.057-0.771-0.229-1.057l-4.586-4.586c-0.286-0.286-0.702-0.361-1.057-0.229-0.13 0.048-0.252 0.124-0.357 0.228 0 0-0 0-0 0l-9.708 9.708-9.708-9.708c-0-0-0-0-0-0-0.105-0.104-0.227-0.18-0.357-0.228-0.356-0.133-0.771-0.057-1.057 0.229l-4.586 4.586c-0.286 0.286-0.361 0.702-0.229 1.057 0.049 0.13 0.124 0.252 0.229 0.357 0 0 0 0 0 0l9.708 9.708-9.708 9.708c-0 0-0 0-0 0-0.104 0.105-0.18 0.227-0.229 0.357-0.133 0.355-0.057 0.771 0.229 1.057l4.586 4.586c0.286 0.286 0.702 0.361 1.057 0.229 0.13-0.049 0.252-0.124 0.357-0.229 0-0 0-0 0-0l9.708-9.708 9.708 9.708c0 0 0 0 0 0 0.105 0.105 0.227 0.18 0.357 0.229 0.356 0.133 0.771 0.057 1.057-0.229l4.586-4.586c0.286-0.286 0.362-0.702 0.229-1.057-0.049-0.13-0.124-0.252-0.229-0.357z"></path>
</symbol>
</defs>
</svg>
